# xmcd
#
# Track frame offsets: 
#        150
#        13679
#        27145
#        40972
#        53760
#        78027
#        90573
#        102718
#        116868
#        131032
#        142775
#        156746
#        164897
#        192769
#        207919
#        220618
#        234472
#        246825
#        260715
#        273520
#        286477
#        298675
#        314927
#        328428
#        343299
#
# Disc length: 4761 seconds
#
# Revision: 0
# Processed by: cddbd v1.5.2PL0 Copyright (c) Steve Scherf et al.
# Submitted via: ExactAudioCopyFreeDBPlugin 1.0
#
DISCID=93129719
DTITLE=Various Artist - I've Got The Blues, But I'm Too Damn Mean To 
DTITLE=Cry [CD2)
DYEAR=2015
DGENRE=Blues
TTITLE0=Charley Patton - Down The Dirt Road Blues
TTITLE1=Fisk Jubilee Singers - Po' Moaner's Got A Home At Last
TTITLE2=John Byrd - That White Mule Of Sin
TTITLE3=Charles Tyus - You've Got To Recognize Me
TTITLE4=Leadbelly - I'm All Out And Down
TTITLE5=Blind Lemon Jefferson - Prison Cell Blues
TTITLE6=Moanin' Bernice Edwards - Moaning Blues
TTITLE7=Pigmeat Pete and Catjuice Charlie - On Our Turpentine Farm
TTITLE8=Bo Carter - Good Old Turnip Greens
TTITLE9=Smith Casey - Two White Horses Standing In Line
TTITLE10=Cow Cow Davenport - Jim Crow Blues
TTITLE11=Son House - Am I Right Or Wrong
TTITLE12=Kelly Pace - It Makes A Long Time Man Feel Bad
TTITLE13=Clara Smith - Waitin' For The Evenin' Mail
TTITLE14=Rev. Edward Clayborn - I Shall Not Be Moved
TTITLE15=Ma Rainey - Toad Frog Blues
TTITLE16=Too Tight Henry - Squinch Owl Moan
TTITLE17=Alice Moore - Daddy-Calling Mama
TTITLE18=Heavenly Gospel Singers - Mean Old World
TTITLE19=Dora Carr with Cow Cow Davenport - Cow Cow Blues
TTITLE20=Robert Johnson - Last Fair Deal Gone Down
TTITLE21=Bumble Bee Slim - Chain Gang Bound
TTITLE22=Rev. J.M. Gates - These Hard Times Are Tight Like That
TTITLE23=Hezekiah Jenkins - The Panic Is On
TTITLE24=Son House - Preachin' The Blues - Part 1
EXTD=
EXTT0=
EXTT1=
EXTT2=
EXTT3=
EXTT4=
EXTT5=
EXTT6=
EXTT7=
EXTT8=
EXTT9=
EXTT10=
EXTT11=
EXTT12=
EXTT13=
EXTT14=
EXTT15=
EXTT16=
EXTT17=
EXTT18=
EXTT19=
EXTT20=
EXTT21=
EXTT22=
EXTT23=
EXTT24=
PLAYORDER=
